<?xml version="1.0" standalone="no"?>
<!DOCTYPE svg PUBLIC "-//W3C//DTD SVG 20010904//EN"
 "http://www.w3.org/TR/2001/REC-SVG-20010904/DTD/svg10.dtd">
<svg version="1.0" xmlns="http://www.w3.org/2000/svg"
 width="512.000000pt" height="512.000000pt" viewBox="0 0 512.000000 512.000000"
 preserveAspectRatio="xMidYMid meet">
<metadata>
Created by potrace 1.14, written by Peter Selinger 2001-2017
</metadata>
<g transform="translate(0.000000,512.000000) scale(0.100000,-0.100000)"
fill="#000000" stroke="none">
<path d="M2415 5106 c-215 -53 -408 -243 -565 -553 -57 -114 -124 -287 -160
-411 -16 -56 -28 -81 -37 -78 -7 3 -61 14 -120 25 -158 29 -256 40 -373 42
-73 2 -76 3 -120 44 -83 77 -160 109 -259 107 -196 -4 -346 -150 -357 -349 -3
-50 -10 -84 -22 -102 -22 -32 -48 -93 -61 -143 -13 -53 -11 -212 4 -283 43
-202 163 -428 349 -658 45 -55 86 -107 93 -116 10 -13 0 -28 -63 -94 -219
-229 -373 -462 -443 -673 -54 -161 -59 -292 -16 -420 65 -195 217 -319 470
-384 111 -28 139 -31 335 -35 187 -3 337 11 534 49 44 9 80 15 81 13 2 -1 24
-65 50 -141 115 -338 244 -567 414 -737 92 -91 170 -143 272 -181 92 -33 246
-33 339 1 268 98 509 429 660 909 26 81 36 101 49 97 153 -47 499 -81 674 -65
59 5 73 3 100 -15 52 -34 117 -50 202 -50 64 1 91 6 136 27 129 59 210 186
210 329 0 36 -4 77 -10 91 -6 16 -6 41 0 69 25 109 9 261 -43 407 -61 174
-188 383 -346 572 l-80 95 87 90 c215 224 381 475 446 673 139 428 -82 749
-570 826 -112 18 -373 18 -520 1 -101 -12 -268 -40 -306 -51 -11 -3 -19 7 -28
38 -59 204 -186 489 -283 636 -209 318 -468 461 -723 398z m231 -321 c107 -53
232 -209 334 -420 53 -107 142 -339 152 -389 3 -16 -19 -26 -153 -71 -86 -28
-217 -76 -292 -105 l-136 -52 -158 67 c-87 37 -219 89 -293 115 -74 26 -136
52 -138 58 -6 20 86 280 141 396 110 231 238 381 362 423 45 16 124 6 181 -22z
m-1271 -970 c202 -32 210 -34 209 -71 0 -16 -10 -85 -22 -154 -11 -69 -24
-150 -27 -180 -3 -30 -8 -66 -10 -80 -3 -14 -7 -52 -10 -85 -4 -47 -10 -63
-27 -75 -89 -60 -261 -187 -357 -263 l-114 -91 -24 30 c-132 159 -246 325
-291 425 -57 126 -69 166 -76 265 -5 54 -4 56 17 50 116 -33 202 -31 287 7 83
37 134 87 176 172 l37 74 71 -5 c39 -3 112 -12 161 -19z m2850 -30 c294 -47
402 -177 336 -408 -36 -125 -115 -263 -243 -423 -76 -96 -207 -234 -222 -234
-6 0 -36 24 -66 53 -70 68 -220 194 -330 277 -47 35 -88 68 -91 72 -3 5 -11
59 -18 121 -11 95 -58 381 -77 470 -4 15 -2 27 4 27 5 0 63 9 129 21 65 11
156 23 203 26 47 3 87 7 89 9 6 5 241 -4 286 -11z m-2303 -104 c13 -6 68 -26
122 -46 165 -60 163 -51 33 -118 -62 -31 -140 -72 -174 -91 -34 -19 -63 -32
-66 -30 -2 2 5 50 15 106 10 57 21 122 24 146 7 45 10 47 46 33z m1317 -156
c12 -66 23 -132 26 -147 4 -26 2 -26 -88 31 -51 31 -127 77 -169 102 -43 24
-78 47 -78 51 0 10 274 98 281 90 4 -4 16 -61 28 -127z m-560 -176 c121 -64
375 -213 472 -277 31 -20 79 -52 106 -70 38 -24 52 -41 58 -65 9 -37 16 -746
8 -795 -4 -26 -16 -40 -57 -66 -203 -129 -673 -370 -721 -369 -29 0 -205 92
-395 206 -122 73 -340 217 -341 225 -17 135 -25 623 -14 797 1 28 3 57 4 66 1
9 11 21 24 27 23 13 27 15 182 107 122 72 522 275 543 275 9 0 67 -28 131 -61z
m-1191 -759 c1 -115 -1 -210 -3 -210 -6 0 -135 107 -155 129 -9 9 -34 32 -57
53 l-41 36 21 20 c16 15 229 181 233 182 0 0 1 -94 2 -210z m2199 89 c111 -96
183 -162 183 -168 0 -4 -23 -25 -52 -46 -28 -22 -56 -44 -62 -50 -6 -6 -36
-29 -66 -51 l-55 -41 -1 199 c0 109 0 198 2 198 2 0 24 -19 51 -41z m-2537
-407 c53 -48 197 -164 298 -241 40 -30 72 -62 73 -70 0 -9 2 -24 4 -33 2 -10
6 -42 9 -70 8 -78 25 -190 47 -308 11 -58 22 -119 25 -136 l5 -32 -88 -15
c-48 -9 -108 -19 -133 -23 -25 -3 -56 -8 -70 -10 -71 -12 -353 -11 -432 2
-190 30 -308 102 -339 207 -53 178 100 482 398 790 l66 68 46 -44 c25 -24 66
-62 91 -85z m2989 -35 c160 -187 282 -387 330 -541 11 -37 21 -69 21 -71 0 -1
-25 -3 -55 -3 -157 -1 -297 -101 -344 -245 -15 -45 -19 -64 -20 -94 -1 -20 -4
-21 -103 -17 -122 5 -321 31 -409 54 l-36 10 13 62 c14 64 49 297 58 378 3 25
8 72 12 105 3 33 7 60 8 61 35 21 299 215 371 273 55 44 103 79 106 78 3 -1
25 -24 48 -50z m-1986 -666 c15 -8 24 -18 20 -22 -9 -8 -246 -89 -261 -89 -5
0 -19 57 -31 128 -13 70 -25 135 -28 145 -3 12 39 -9 134 -65 76 -46 150 -90
166 -97z m1123 112 c-7 -55 -11 -78 -33 -190 l-15 -82 -111 40 c-127 45 -202
77 -196 83 2 2 45 25 94 51 151 79 240 127 250 136 16 15 17 10 11 -38z m-481
-428 c77 -32 190 -75 250 -96 90 -30 109 -40 107 -55 -6 -32 -72 -223 -93
-272 -85 -194 -170 -332 -254 -415 -153 -151 -291 -149 -447 6 -98 97 -186
241 -271 442 -43 104 -111 296 -105 300 2 1 75 25 163 53 88 29 214 74 280
101 l120 48 55 -27 c30 -15 118 -53 195 -85z"/>
<path d="M2435 3079 c-185 -45 -337 -190 -391 -374 -22 -78 -22 -211 0 -290
26 -88 59 -146 121 -213 287 -311 776 -199 911 208 23 71 24 223 1 298 -58
191 -214 335 -407 376 -86 19 -144 17 -235 -5z"/>
</g>
</svg>
